<svg version="1.1" id="Layer_1" xmlns="http://www.w3.org/2000/svg" xmlns:xlink="http://www.w3.org/1999/xlink" x="0px" y="0px"
	 width="100%" viewBox="0 0 780 680" enable-background="new 0 0 780 680" xml:space="preserve">
<path fill="#ffffff" opacity="1.000000" stroke="none" 
	d="
M69.340744,42.593616 
	C72.701591,42.656231 75.655884,42.977360 78.610023,42.976002 
	C96.384155,42.967827 114.268661,41.605286 131.906723,43.125923 
	C158.915390,45.454426 177.465714,61.114609 186.653702,86.100441 
	C191.853790,100.241562 194.007065,115.562431 196.929138,130.470230 
	C204.277267,167.959015 211.263214,205.518707 218.431885,243.042801 
	C223.564346,269.908447 228.921921,296.732941 233.756760,323.651611 
	C234.534332,327.980896 236.466415,328.075134 239.715881,328.073639 
	C327.712036,328.033234 415.708191,328.041382 503.704346,328.041382 
	C530.369873,328.041382 557.035339,328.042633 583.700867,328.040863 
	C601.833130,328.039642 611.333923,320.759857 616.082886,303.355072 
	C634.083557,237.383270 652.029480,171.396347 670.196289,105.470268 
	C673.300171,94.206406 678.915527,84.670715 691.620117,81.678429 
	C709.102234,77.560905 727.709656,90.761116 726.000732,107.035568 
	C724.887390,117.638748 722.429993,128.180878 719.706604,138.521729 
	C703.932251,198.416977 688.031799,258.279816 671.906189,318.081390 
	C662.105286,354.427765 638.343933,376.243317 601.487122,383.599213 
	C595.985168,384.697327 590.217346,384.792297 584.572266,384.795624 
	C473.577087,384.861145 362.581940,384.844360 251.586761,384.844360 
	C249.607910,384.844360 247.629044,384.844360 245.250473,384.844360 
	C247.286957,396.650726 248.806320,408.116669 251.320480,419.360168 
	C254.443924,433.328461 265.869476,441.701843 280.905670,441.984650 
	C285.570496,442.072388 290.238342,441.998718 294.904816,441.998718 
	C403.233429,441.998749 511.562073,441.994843 619.890686,442.002869 
	C636.667603,442.004089 647.950745,451.313843 650.171326,466.915894 
	C652.269226,481.655914 642.309387,495.487762 627.627563,497.953796 
	C623.718262,498.610443 619.706299,498.938232 615.741272,498.940033 
	C504.412811,498.991302 393.084229,499.067230 281.755920,498.933838 
	C243.489914,498.887970 215.832870,481.265045 200.792648,446.133575 
	C195.600677,434.005981 193.751358,420.341797 191.165771,407.223694 
	C183.458893,368.122345 176.120499,328.948212 168.683090,289.793945 
	C161.404465,251.475632 154.233551,213.136810 146.913345,174.826462 
	C142.660675,152.570053 138.246063,130.344269 133.821472,108.121216 
	C132.432800,101.146439 129.587234,98.965118 122.474503,98.961372 
	C105.975220,98.952690 89.475540,99.031349 72.976761,98.939598 
	C51.661812,98.821060 43.172085,86.713829 42.446461,71.302849 
	C41.857449,58.793335 48.912888,44.859928 69.340744,42.593616 
z"/>
<path fill="#ffffff" opacity="1.000000" stroke="none" 
	d="
M346.007019,203.973572 
	C329.742737,203.242325 317.989410,192.158325 317.965881,176.305023 
	C317.945251,162.394897 326.117889,150.065613 343.024475,147.862747 
	C343.681763,147.777115 344.334229,147.654175 345.679047,147.969223 
	C346.823700,148.568619 347.277679,148.902145 347.732849,148.903778 
	C361.797821,148.954636 375.863159,149.008682 389.927643,148.928802 
	C391.056458,148.922394 392.179810,147.959183 393.305695,147.440613 
	C393.441620,133.020142 393.534302,118.599030 393.746155,104.179665 
	C393.794708,100.874283 393.890350,97.496391 394.584656,94.286034 
	C398.047668,78.273384 409.592194,71.678680 422.638123,71.557175 
	C437.465027,71.419090 448.032654,81.852089 449.849365,97.824539 
	C449.307617,113.964233 449.139587,129.414551 449.086792,144.865265 
	C449.084259,145.602661 450.100616,146.343536 450.642487,147.082794 
	C450.642487,147.082779 450.905945,147.037674 451.082062,147.526810 
	C452.126343,148.343414 452.993286,148.952499 453.862854,148.956268 
	C467.759399,149.016602 481.656525,149.028809 495.552856,148.948044 
	C496.738708,148.941147 497.920288,148.197906 499.103851,147.796753 
	C514.900574,148.778854 525.768677,158.973190 526.364502,174.693253 
	C526.807922,186.392944 520.685059,200.399246 502.778595,203.599075 
	C501.469727,203.832977 500.145538,203.981155 498.321106,203.913620 
	C497.541290,203.776428 497.268860,203.894791 496.996429,204.013153 
	C482.303589,204.088638 467.610718,204.164124 452.361389,203.957947 
	C451.550232,203.837723 451.295502,203.999176 451.040802,204.160629 
	C450.982269,204.343948 450.923737,204.527267 450.298096,205.041290 
	C449.486969,206.123474 449.032410,206.874298 449.030090,207.626480 
	C448.987366,221.586685 448.970093,235.547195 449.049133,249.507065 
	C449.055878,250.701660 449.778442,251.892227 450.168488,253.084671 
	C449.042236,271.108368 436.316284,279.823120 421.950684,280.066925 
	C405.756897,280.341736 394.014862,267.555389 393.745331,250.131287 
	C393.511566,235.016541 393.555695,219.897491 393.159912,204.260803 
	C392.560669,203.831924 392.278503,203.922592 391.996368,204.013245 
	C377.303528,204.088745 362.610657,204.164246 347.375427,203.955322 
	C346.557709,203.771790 346.282379,203.872696 346.007019,203.973572 
z"/>
<path fill="#ffffff" opacity="1.000000" stroke="none" 
	d="
M215.124542,550.108154 
	C242.557648,528.111572 282.690002,534.248657 300.813080,565.614075 
	C317.787659,594.991821 306.716644,633.361450 272.162323,646.882629 
	C248.556931,656.119507 223.831650,649.528137 207.066833,630.212402 
	C192.687469,613.645203 189.884018,586.473938 201.317291,566.163086 
	C204.658722,560.227112 210.270508,555.569275 215.124542,550.108154 
z"/>
<path fill="#ffffff" opacity="1.000000" stroke="none" 
	d="
M608.785400,539.033691 
	C633.272705,545.257385 649.240051,567.553589 650.686584,590.834412 
	C652.161743,614.575623 636.938171,641.843933 609.235535,649.008606 
	C579.973022,656.576538 550.919739,643.093140 540.501953,613.543030 
	C533.170471,592.747253 536.512939,572.922424 551.321167,556.127563 
	C566.606628,538.791687 586.132935,533.948853 608.785400,539.033691 
z"/>
</svg>