<svg version="1.1" id="Layer_1" xmlns="http://www.w3.org/2000/svg" xmlns:xlink="http://www.w3.org/1999/xlink" x="0px" y="0px"
	 width="100%" viewBox="0 0 528 432" enable-background="new 0 0 528 432" xml:space="preserve">
<path fill="#ffffff" opacity="1.000000" stroke="none" 
	d="
M116.133972,38.927147 
	C122.530060,46.915897 124.439774,56.214996 126.212349,65.563560 
	C132.368805,98.032791 138.520737,130.502884 144.676422,162.972260 
	C147.088684,175.696259 149.628098,188.398041 151.850296,201.155121 
	C152.552017,205.183487 154.226654,206.706360 158.424530,206.699829 
	C231.424271,206.586395 304.424225,206.623291 377.424133,206.574234 
	C388.884033,206.566528 395.766541,200.989853 398.737823,190.067184 
	C410.390656,147.230438 422.132355,104.417862 433.804718,61.586411 
	C436.136047,53.031670 440.597595,46.760372 450.158813,45.797993 
	C459.123932,44.895611 466.244843,48.062244 470.791901,55.973202 
	C473.807190,61.219196 473.127563,67.240646 471.776978,72.530540 
	C464.582977,100.707741 457.074463,128.809845 449.243042,156.817215 
	C444.321533,174.417892 440.705780,192.383652 434.546082,209.638565 
	C427.278198,229.997757 405.616638,245.338669 383.869385,245.347748 
	C312.202789,245.377655 240.536194,245.347412 168.869614,245.390091 
	C166.283218,245.391617 163.550293,244.701004 160.636063,246.475800 
	C161.772354,254.029877 162.231033,261.870544 165.012512,269.169586 
	C168.526184,278.390045 176.550781,280.532990 185.342987,280.553040 
	C219.676102,280.631317 254.009506,280.589111 288.342804,280.586609 
	C323.009430,280.584106 357.676117,280.557159 392.342682,280.590271 
	C397.322052,280.595032 402.286438,279.736633 407.291260,280.759735 
	C416.925262,282.729156 422.840027,289.354706 423.318695,299.050598 
	C423.793610,308.670471 418.082611,316.546295 408.721558,319.038422 
	C405.334320,319.940186 401.871399,320.224365 398.340454,320.222168 
	C327.840546,320.178223 257.335754,319.698151 186.842834,320.400909 
	C153.162430,320.736633 128.985870,299.254242 123.607407,268.064636 
	C116.210510,225.170227 107.458443,182.509705 99.308723,139.744843 
	C94.706886,115.597176 90.136665,91.443466 85.579552,67.287315 
	C84.511246,61.624546 83.082512,60.346619 77.237114,60.330124 
	C67.237206,60.301910 57.235420,60.434406 47.237637,60.284615 
	C35.087978,60.102577 27.278522,53.661808 25.749895,42.861217 
	C24.181805,31.781780 31.050346,22.121159 43.292221,21.215607 
	C59.024628,20.051855 74.963707,19.346811 90.650185,22.021261 
	C101.273346,23.832443 109.449745,30.123020 116.133972,38.927147 
z"/>
<path fill="#ffffff" opacity="1.000000" stroke="none" 
	d="
M240.981781,128.333801 
	C233.859680,128.032349 227.255966,128.338318 220.588120,127.584061 
	C211.947510,126.606651 205.410370,119.507042 204.711105,109.944489 
	C203.966873,99.766754 209.330795,91.983253 218.582397,89.655251 
	C226.462601,87.672333 234.490067,88.888443 242.446976,88.702782 
	C255.928406,88.388206 254.580795,90.531563 254.651077,76.331245 
	C254.681580,70.167679 254.622101,64.003616 254.663986,57.840183 
	C254.737000,47.094524 261.433655,40.349232 273.246735,39.059368 
	C282.418579,38.057903 291.600739,45.215271 293.225037,54.787842 
	C294.796600,64.049553 294.004761,73.407402 293.943542,82.717216 
	C293.914368,87.158142 295.127960,88.774521 299.868591,88.793549 
	C309.485077,88.832130 319.194824,87.475433 328.722809,89.681328 
	C337.512451,91.716293 343.717865,99.215469 343.197205,107.987740 
	C342.649414,117.217468 338.627869,125.774078 327.556152,127.508858 
	C318.246735,128.967529 308.957184,128.135803 299.667816,128.225204 
	C295.271881,128.267517 293.910583,129.691666 293.928619,134.017212 
	C293.967407,143.326462 294.900665,152.690948 293.273407,161.944397 
	C291.772644,170.478699 284.593475,176.963531 276.631805,177.328018 
	C264.537933,177.881668 257.743195,173.750183 255.166550,163.888031 
	C253.892670,159.012146 254.790588,153.942169 254.678406,148.962357 
	C254.558395,143.634232 254.502731,138.296158 254.696136,132.972473 
	C254.824310,129.445038 253.342957,128.166107 249.972092,128.332535 
	C247.147644,128.472015 244.309967,128.343353 240.981781,128.333801 
z"/>
<path fill="#ffffff" opacity="1.000000" stroke="none" 
	d="
M132.855911,405.059692 
	C121.983414,391.463562 122.476753,370.387177 130.825012,358.491333 
	C140.806152,344.268738 157.419373,339.176971 172.893173,343.478455 
	C190.078278,348.255646 199.936615,361.447327 200.483551,378.773743 
	C200.893417,391.757599 196.550827,402.476532 186.630646,410.922302 
	C174.103058,421.587952 145.968094,422.458679 132.855911,405.059692 
z"/>
<path fill="#ffffff" opacity="1.000000" stroke="none" 
	d="
M416.524109,357.597992 
	C428.813599,376.517517 424.501190,400.986816 406.395050,412.450073 
	C393.486237,420.622833 379.596039,420.940308 366.068878,413.591309 
	C353.035156,406.510345 346.655701,394.832764 346.890381,380.351807 
	C347.280151,356.301270 364.078857,342.620667 385.167999,342.180878 
	C397.464874,341.924438 408.528992,346.913696 416.524109,357.597992 
z"/>
</svg>