<svg version="1.1" id="Layer_1" xmlns="http://www.w3.org/2000/svg" xmlns:xlink="http://www.w3.org/1999/xlink" x="0px" y="0px"
	 width="100%" viewBox="0 0 741 671" enable-background="new 0 0 741 671" xml:space="preserve">
<path fill="#ffffff" opacity="1.000000" stroke="none" 
	d="
M606.985413,433.060760 
	C620.707275,433.848297 629.812317,440.694824 633.576477,453.055969 
	C636.975830,464.219360 633.288696,477.331146 623.766968,483.596375 
	C619.115051,486.657257 613.108582,487.659607 607.182312,489.176819 
	C605.400513,488.506226 604.151794,488.030701 602.902893,488.030334 
	C491.041779,487.996307 379.180695,487.993256 267.319611,488.060150 
	C265.891754,488.061005 264.464386,488.985321 263.036804,489.478577 
	C244.883850,489.720459 228.909943,483.809113 214.348724,473.078766 
	C192.586868,457.042175 182.720459,434.969025 177.904251,408.929138 
	C161.583954,320.689880 144.317886,232.625565 127.415436,144.493958 
	C124.626007,129.949539 121.847382,115.403046 119.064461,100.857376 
	C117.454414,92.442009 115.607910,90.898727 107.071701,90.895668 
	C90.740501,90.889801 74.408913,90.965508 58.078213,90.875511 
	C41.216522,90.782593 30.466564,81.713249 27.883348,65.614441 
	C25.903605,53.276520 33.774586,39.874462 45.701157,36.085659 
	C49.916492,34.746536 54.495770,34.039536 58.922916,33.972656 
	C75.083786,33.728519 91.275116,34.448982 107.410004,33.757145 
	C140.880814,32.321968 169.906281,57.682339 176.196228,90.879227 
	C190.328339,165.465134 204.668045,240.011719 218.782822,314.600861 
	C219.414749,317.940308 220.524048,318.875824 223.843216,318.873413 
	C339.328064,318.790436 454.812958,318.821167 570.297852,318.784332 
	C586.318665,318.779205 595.631042,311.369812 600.041931,295.268463 
	C617.410461,231.866272 634.716187,168.446884 652.088867,105.045830 
	C653.580627,99.601585 654.955933,94.060692 657.141418,88.883911 
	C662.702148,75.712730 675.913086,69.034737 689.518188,73.199928 
	C701.244629,76.789970 713.233093,86.173615 710.044189,103.705170 
	C707.074280,120.032494 702.251831,136.034317 698.002258,152.115311 
	C684.014404,205.047180 669.975525,257.965698 655.840881,310.858582 
	C645.756348,348.595581 612.834595,374.856598 574.241821,375.278870 
	C571.768066,374.548981 569.863037,374.035431 567.957458,374.033630 
	C520.646790,373.989166 473.336029,373.998749 426.025269,373.998749 
	C362.888733,373.998749 299.752136,373.984192 236.615707,374.069244 
	C234.722733,374.071808 232.831177,375.117706 230.938934,375.677185 
	C233.352158,388.998352 234.572937,402.685791 238.520416,415.535645 
	C242.322159,427.911102 253.484955,432.099060 265.815979,432.760071 
	C267.310699,432.840179 268.813385,432.772461 270.312378,432.772583 
	C381.903961,432.781982 493.495575,432.791351 605.629150,433.074036 
	C606.442566,433.251862 606.713989,433.156311 606.985413,433.060760 
z"/>
<path fill="#ffffff" opacity="1.000000" stroke="none" 
	d="
M378.305878,138.441116 
	C378.441986,124.020081 378.525360,109.598221 378.752502,95.178619 
	C378.807129,91.711716 378.959503,88.166992 379.715942,84.804047 
	C383.257050,69.061905 394.908600,62.648746 407.642181,62.555008 
	C422.474701,62.445812 433.018860,72.842400 434.849731,88.828812 
	C434.307587,104.964333 434.139587,120.414154 434.086792,135.864380 
	C434.084259,136.602081 435.100067,137.343262 435.641663,138.082825 
	C435.641663,138.082825 435.905701,138.037766 436.082123,138.527008 
	C437.126831,139.343613 437.993866,139.952530 438.863556,139.956284 
	C452.759644,140.016602 466.656311,140.028778 480.552185,139.948059 
	C481.738190,139.941162 482.919922,139.198318 484.103638,138.797363 
	C499.903137,139.782944 510.763062,149.974396 511.364807,165.693237 
	C511.809937,177.320328 505.734985,191.391434 487.778351,194.598297 
	C486.469482,194.832047 485.145416,194.980499 483.320923,194.913330 
	C482.541138,194.776291 482.268860,194.894531 481.996552,195.012756 
	C467.303650,195.088181 452.610718,195.163605 437.361267,194.957657 
	C436.550018,194.837555 436.295349,194.998825 436.040680,195.160126 
	C435.981964,195.343491 435.923218,195.526840 435.297485,196.041351 
	C434.486633,197.124054 434.032349,197.874969 434.030060,198.627274 
	C433.987396,212.587021 433.970093,226.547073 434.049103,240.506485 
	C434.055847,241.701218 434.778107,242.891907 435.167969,244.084473 
	C434.044556,262.081696 421.337982,270.822876 406.949982,271.066284 
	C390.755554,271.340210 379.015320,258.554474 378.746033,241.129974 
	C378.512421,226.015411 378.556244,210.896561 378.160004,195.260376 
	C377.560547,194.831726 377.278534,194.922302 376.996521,195.012878 
	C362.303589,195.088303 347.610657,195.163727 332.375244,194.955048 
	C331.557587,194.771698 331.282379,194.872437 331.007172,194.973175 
	C314.731628,194.231705 302.993713,183.165222 302.966949,167.304596 
	C302.943512,153.399933 311.113159,141.067215 328.024872,138.863403 
	C328.682159,138.777756 329.334595,138.654938 330.679565,138.969727 
	C331.824371,139.568771 332.278412,139.902130 332.733612,139.903763 
	C346.798187,139.954605 360.863098,140.008667 374.927185,139.928833 
	C376.056213,139.922424 377.179779,138.959518 378.305878,138.441116 
z"/>
<path fill="#ffffff" opacity="1.000000" stroke="none" 
	d="
M576.122559,527.875244 
	C621.170044,527.870239 648.966675,572.420654 628.378357,611.893738 
	C619.672852,628.584412 604.753235,638.467102 585.861938,640.831238 
	C561.759705,643.847473 542.360168,634.687378 529.532043,614.455261 
	C517.992310,596.255249 517.805054,576.130249 528.087708,557.328796 
	C538.085144,539.048767 554.613464,529.339905 576.122559,527.875244 
z"/>
<path fill="#ffffff" opacity="1.000000" stroke="none" 
	d="
M278.913330,547.102783 
	C300.395752,572.244019 297.162354,607.676758 271.274933,629.736023 
	C251.819366,646.314575 214.379990,646.705139 194.058243,622.914673 
	C172.830811,598.063965 175.123291,563.233887 199.540131,541.064758 
	C218.633911,523.728699 257.338898,521.511536 278.913330,547.102783 
z"/>y
</svg>