<svg version="1.1" id="Layer_1" xmlns="http://www.w3.org/2000/svg" xmlns:xlink="http://www.w3.org/1999/xlink" x="0px" y="0px"
	 width="100%" viewBox="0 0 462 494" enable-background="new 0 0 462 494" xml:space="preserve">
<path fill="#ffffff" opacity="1.000000" stroke="none" 
	d="
M110.101761,472.974457 
	C78.256088,468.606628 55.392551,452.427277 41.749695,423.686829 
	C36.157635,411.906403 34.125149,399.247101 34.105793,386.324768 
	C34.016174,326.503143 34.030682,266.681305 34.081360,206.859604 
	C34.104076,180.045593 52.289337,161.774155 79.236641,161.503418 
	C95.231934,161.342697 111.230148,161.472946 127.227051,161.472382 
	C129.036774,161.472305 130.846497,161.472366 133.357483,161.472366 
	C133.357483,159.389008 133.340134,157.625748 133.360214,155.862915 
	C133.523361,141.539062 133.274307,127.195831 133.938721,112.895103 
	C136.088577,66.622833 171.309570,28.057970 217.300354,21.179417 
	C262.268860,14.453759 304.461700,37.118580 323.232330,78.186554 
	C329.417572,91.719200 331.949738,106.066139 332.009186,120.877548 
	C332.062592,134.186172 332.020416,147.495178 332.020416,161.472351 
	C334.230103,161.472351 336.146759,161.458832 338.063110,161.474442 
	C356.051483,161.621094 374.075806,161.114288 392.018860,162.093964 
	C413.176819,163.249222 429.059265,179.669678 430.950897,200.757080 
	C431.144104,202.911087 431.247925,205.080826 431.248474,207.243286 
	C431.263885,266.731781 431.264832,326.220245 431.258362,385.708740 
	C431.255127,415.636505 420.060364,440.070160 395.582855,457.873352 
	C380.215851,469.050232 362.637329,473.713287 343.960052,473.761749 
	C269.808258,473.954132 195.655640,473.853119 121.503349,473.805847 
	C117.851639,473.803528 114.200264,473.282990 110.101761,472.974457 
M259.500000,204.002701 
	C231.742081,204.002701 203.984146,204.002701 176.460098,204.002701 
	C176.176224,204.769241 176.074188,204.916367 176.073914,205.063705 
	C176.044968,220.728104 176.133148,236.393631 175.972427,252.056610 
	C175.796356,269.216553 161.044662,279.399628 145.912720,272.878448 
	C136.289108,268.731140 133.501892,260.431519 133.401932,250.903931 
	C133.239685,235.439178 133.358215,219.971481 133.358215,204.369675 
	C114.311005,204.369675 95.611588,204.369675 76.792397,204.369675 
	C76.792397,265.894989 76.484970,327.055695 76.939499,388.210724 
	C77.128700,413.666809 95.691383,430.943085 121.294312,430.969757 
	C195.620651,431.047119 269.947479,431.095062 344.272919,430.825226 
	C350.746552,430.801758 357.652161,429.388000 363.597748,426.844696 
	C381.474609,419.197784 388.659973,404.059662 388.748291,385.613464 
	C389.031586,326.453674 388.855713,267.291656 388.842499,208.130493 
	C388.842224,206.853577 388.667572,205.576706 388.580444,204.383728 
	C369.545288,204.383728 350.831543,204.383728 332.020172,204.383728 
	C332.020172,220.427216 332.088379,236.090240 331.999573,251.752380 
	C331.922272,265.385803 323.382599,274.709473 310.966858,274.952637 
	C299.158966,275.183960 290.404846,266.477295 289.540405,253.183563 
	C289.141113,247.042892 289.435852,240.856522 289.431396,234.690872 
	C289.424072,224.586578 289.429413,214.482300 289.429413,204.002701 
	C279.439545,204.002701 269.969757,204.002701 259.500000,204.002701 
M176.001495,134.500168 
	C176.001495,143.429306 176.001495,152.358444 176.001495,161.196045 
	C214.067978,161.196045 251.482544,161.196045 289.430267,161.196045 
	C289.430267,148.984329 289.566193,137.039215 289.370667,125.099525 
	C289.278412,119.465378 289.029449,113.754906 288.028748,108.227997 
	C283.383728,82.574402 262.287384,63.906292 234.251053,62.555691 
	C210.379898,61.405739 188.733871,76.140732 179.870255,99.016968 
	C175.531723,110.214340 175.933350,121.855148 176.001495,134.500168 
z"/>
</svg>