<svg version="1.1" id="Layer_1" xmlns="http://www.w3.org/2000/svg" xmlns:xlink="http://www.w3.org/1999/xlink" x="0px" y="0px"
	 width="100%" viewBox="0 0 4548 959" enable-background="new 0 0 4548 959" xml:space="preserve">
<path fill="#322D3C" opacity="1.000000" stroke="none" 
	d="
M1804.937256,962.000000 
	C1802.470703,957.382263 1798.177856,958.084961 1794.790771,957.495667 
	C1774.392822,953.946716 1754.395264,948.984741 1734.841675,942.084961 
	C1695.124634,928.070251 1658.498047,908.752197 1627.845703,879.445862 
	C1620.196655,872.132874 1613.928833,863.359009 1607.170044,855.138306 
	C1603.831421,851.077515 1603.472290,846.796326 1606.992554,842.430969 
	C1627.073120,817.530090 1647.097168,792.583618 1667.186646,767.690002 
	C1667.979126,766.707825 1669.239990,766.103638 1671.263306,764.589539 
	C1674.131348,767.825012 1677.079468,770.780212 1679.605103,774.060791 
	C1694.727173,793.702942 1711.581909,811.676880 1731.969971,825.880005 
	C1791.460205,867.323425 1853.644043,868.731934 1916.958252,836.002197 
	C1942.329224,822.886963 1959.498779,801.052368 1970.977905,774.973389 
	C1980.742188,752.790100 1985.901611,729.405029 1987.793091,705.332031 
	C1989.013428,689.803589 1989.523438,674.219299 1989.141968,658.332031 
	C1985.057617,661.773132 1983.810913,666.496887 1981.955566,670.792053 
	C1973.794312,689.686401 1962.415283,706.309875 1947.799072,720.817078 
	C1929.778809,738.703003 1908.045166,750.163696 1883.705322,755.928711 
	C1842.400513,765.712097 1801.062012,765.152527 1760.345459,752.224731 
	C1714.551147,737.684814 1683.348755,707.302979 1664.932251,663.269409 
	C1655.584839,640.919861 1650.405151,617.534058 1648.401123,593.523438 
	C1647.018066,576.953125 1646.372070,560.276245 1646.342651,543.645325 
	C1646.162842,441.987610 1646.248535,340.329407 1646.258667,238.671371 
	C1646.260376,222.101883 1646.290527,222.082428 1662.754761,222.075027 
	C1694.085449,222.060944 1725.416138,222.065399 1756.746826,222.081543 
	C1759.744507,222.083084 1762.744629,222.169281 1765.739258,222.308716 
	C1769.728027,222.494476 1771.819458,224.701675 1771.996948,228.635925 
	C1772.161987,232.295975 1772.251587,235.962601 1772.252197,239.626358 
	C1772.266479,325.952362 1771.862427,412.281433 1772.516846,498.602478 
	C1772.705444,523.485229 1772.263428,548.693298 1778.331299,573.144043 
	C1781.042969,584.070068 1784.304932,595.141724 1789.290771,605.165649 
	C1801.871826,630.460449 1824.276611,640.696472 1851.334717,641.947571 
	C1911.492065,644.729065 1953.812256,616.187866 1973.872803,559.455139 
	C1982.255127,535.749329 1987.089722,511.245392 1988.169800,486.134338 
	C1989.085449,464.849396 1989.599609,443.533020 1989.668701,422.228516 
	C1989.863037,362.234222 1989.735962,302.238892 1989.738647,242.243988 
	C1989.738770,238.911026 1989.665039,235.574005 1989.799316,232.245880 
	C1990.155029,223.429443 1991.059326,222.202469 1999.636230,222.169495 
	C2035.299072,222.032425 2070.963135,222.034729 2106.626221,222.179688 
	C2114.768799,222.212784 2115.731445,223.484222 2116.187988,231.508850 
	C2116.320068,233.835403 2116.259766,236.173874 2116.260010,238.506866 
	C2116.261963,383.494568 2116.287354,528.482239 2116.240479,673.469971 
	C2116.229736,706.910767 2113.152344,740.020386 2104.217529,772.378418 
	C2081.944092,853.043030 2032.405396,909.565125 1954.030884,939.524414 
	C1934.219360,947.097534 1913.116333,951.284729 1892.628418,957.103821 
	C1889.205566,958.075989 1885.893799,959.438354 1882.265381,961.310181 
	C1856.624878,962.000000 1831.249756,962.000000 1804.937256,962.000000 
z"/>
<path fill="#322D3C" opacity="1.000000" stroke="none" 
	d="
M2208.937256,962.000000 
	C2208.083740,956.335632 2208.240234,950.671326 2208.240479,945.006958 
	C2208.252686,710.686584 2208.254150,476.366272 2208.246094,242.045914 
	C2208.245361,219.983444 2207.422607,222.130508 2228.378418,222.086243 
	C2259.709961,222.020065 2291.041504,222.037735 2322.373047,222.090302 
	C2335.205078,222.111816 2335.681152,222.621002 2335.728516,235.798218 
	C2335.791992,253.463669 2335.720215,271.129608 2335.778809,288.795105 
	C2335.789307,291.947083 2336.150391,295.097900 2338.175537,298.854095 
	C2340.590088,295.849152 2343.000977,292.841095 2345.419922,289.839722 
	C2382.139404,244.281158 2430.042969,221.586182 2488.266357,222.307404 
	C2534.772217,222.883453 2577.799072,235.412506 2614.105957,266.094757 
	C2644.438232,291.728149 2664.619385,324.230530 2677.681641,361.406677 
	C2691.734375,401.402466 2698.069092,442.644287 2698.380615,485.014709 
	C2698.631104,519.099060 2697.450195,552.968994 2689.854004,586.353516 
	C2682.478027,618.769104 2671.445068,649.738831 2652.695312,677.455627 
	C2624.125244,719.690491 2585.035645,746.685364 2534.917725,757.038879 
	C2491.458008,766.017029 2448.742920,764.825195 2407.695068,745.973206 
	C2384.390381,735.270081 2363.917969,720.666199 2347.473145,700.747009 
	C2344.565430,697.224976 2341.443604,693.879822 2336.423096,690.834229 
	C2336.198975,694.604675 2335.781982,698.374939 2335.779297,702.145447 
	C2335.738281,764.142029 2335.738770,826.138550 2335.754883,888.135132 
	C2335.760986,912.133057 2335.829590,936.131042 2335.934814,961.064453 
	C2293.958252,962.000000 2251.916260,962.000000 2208.937256,962.000000 
M2569.239746,538.018555 
	C2569.875732,533.065613 2570.698730,528.128479 2571.117676,523.157288 
	C2574.170166,486.956085 2572.295898,451.191681 2559.729492,416.737427 
	C2551.526855,394.247345 2539.559814,374.111389 2520.419922,358.805847 
	C2479.606445,326.168427 2414.517578,328.515808 2377.944824,369.206055 
	C2362.954834,385.883545 2353.224854,405.359924 2346.635254,426.626160 
	C2338.640381,452.426727 2337.319824,478.892853 2337.648193,505.665955 
	C2337.979736,532.696472 2343.124023,558.604370 2353.845947,583.360107 
	C2371.430664,623.962585 2407.706055,654.407776 2458.633545,652.155273 
	C2495.266602,650.534973 2523.631104,634.634277 2544.170898,604.598755 
	C2557.572021,585.002136 2564.648682,562.872681 2569.239746,538.018555 
z"/>
<path fill="#322D3C" opacity="1.000000" stroke="none" 
	d="
M4550.000000,761.062683 
	C4513.020508,762.019348 4476.041504,762.039917 4439.062012,762.054260 
	C4437.396484,762.054932 4435.723633,762.092163 4434.067383,761.954712 
	C4427.300781,761.393433 4426.356934,760.434326 4425.854980,753.339539 
	C4425.667480,750.685852 4425.743652,748.011780 4425.742188,745.346985 
	C4425.733398,728.023315 4425.764648,710.699524 4425.710938,693.375977 
	C4425.700684,690.206909 4425.360840,687.038879 4425.053711,681.850098 
	C4422.015137,685.449219 4420.315918,687.318726 4418.772949,689.309692 
	C4376.263672,744.169067 4320.458496,767.643372 4251.507812,760.517700 
	C4219.142578,757.172974 4188.981445,747.722351 4161.729492,729.649963 
	C4128.458008,707.586121 4105.559082,677.051941 4089.752441,640.888672 
	C4075.217041,607.634033 4067.042236,572.720703 4063.792480,536.630005 
	C4059.953369,493.992767 4060.347900,451.472168 4068.146729,409.245819 
	C4075.364014,370.165283 4088.223633,333.219574 4111.730469,300.732941 
	C4144.209961,255.846054 4188.606934,231.085846 4243.278809,224.063126 
	C4276.121094,219.844528 4308.415527,221.307678 4339.798340,232.876205 
	C4370.860352,244.326401 4396.765137,262.914825 4417.312500,288.916718 
	C4419.314453,291.450592 4421.396484,293.921509 4424.685547,297.942322 
	C4425.178223,293.571869 4425.685547,291.114014 4425.695801,288.654083 
	C4425.768555,270.664337 4425.673340,252.673859 4425.772949,234.684402 
	C4425.837891,222.869995 4426.532227,222.134888 4438.186035,222.107895 
	C4474.832520,222.022995 4511.478516,222.052536 4549.062500,222.018890 
	C4550.000000,401.375122 4550.000000,580.750244 4550.000000,761.062683 
M4422.211914,508.994385 
	C4422.229004,496.060974 4422.601562,483.116180 4422.188965,470.196503 
	C4421.360352,444.242401 4415.703125,419.242523 4404.110352,396.008392 
	C4384.655273,357.014343 4354.332031,333.107758 4309.321777,331.897430 
	C4272.635742,330.910950 4242.520508,344.557831 4220.075684,374.168549 
	C4206.948242,391.487152 4198.884766,411.052887 4193.957520,432.004059 
	C4186.546875,463.514587 4185.976562,495.350586 4190.571289,527.270203 
	C4194.063477,551.532776 4201.276367,574.562134 4213.990234,595.805298 
	C4254.341797,663.228821 4351.752441,666.095459 4394.295898,599.502075 
	C4411.606934,572.404663 4419.486816,542.481140 4422.211914,508.994385 
z"/>
<path fill="#26B05C" opacity="1.000000" stroke="none" 
	d="
M1.999993,496.937317 
	C4.232014,498.686676 7.228863,501.036041 8.584324,504.109314 
	C43.477459,583.222900 105.302223,629.448425 187.776443,649.428528 
	C208.322311,654.406006 229.832855,657.170288 250.966339,657.586914 
	C295.653534,658.467957 337.376099,647.373901 373.629974,619.833923 
	C390.563690,606.970398 404.312317,591.328552 413.910736,572.216309 
	C414.806763,570.432129 415.708405,568.646545 416.716125,566.925354 
	C417.028748,566.391479 417.700836,566.068115 419.292603,564.751526 
	C451.602478,584.016357 484.313080,603.520203 517.371826,623.231567 
	C512.812195,637.268433 505.659607,649.194641 497.628052,660.582520 
	C475.891052,691.403259 447.447754,714.553284 414.511139,732.460693 
	C377.407562,752.633484 337.636536,764.187134 295.695953,767.705933 
	C240.197830,772.362366 186.434479,764.313782 136.484985,739.264648 
	C62.271088,702.047241 18.645523,641.698364 5.839490,559.398010 
	C5.452158,556.908813 4.368091,554.528015 2.804432,552.048340 
	C2.000000,533.958191 2.000000,515.916443 1.999993,496.937317 
z"/>
<path fill="#26B05C" opacity="1.000000" stroke="none" 
	d="
M3415.062744,1.999997 
	C3415.833008,2.943607 3415.304688,4.594483 3415.554443,4.721958 
	C3418.205322,6.075327 3420.974121,7.199309 3423.720703,8.362808 
	C3456.984863,22.452692 3477.348633,59.421246 3471.692383,95.460083 
	C3466.109619,131.031998 3436.786865,158.943039 3401.247559,163.035461 
	C3359.910889,167.795456 3322.286865,140.857559 3312.934082,101.423592 
	C3303.959717,63.587616 3323.201660,24.310823 3360.406494,8.163031 
	C3363.601318,6.776498 3366.498291,4.703493 3368.766846,2.474702 
	C3383.375244,2.000000 3398.750244,2.000000 3415.062744,1.999997 
z"/>
<path fill="#322D3C" opacity="1.000000" stroke="none" 
	d="
M876.489136,247.460876 
	C897.687988,260.033691 914.370239,276.551361 930.712708,295.093018 
	C931.050842,292.400177 931.666687,289.708923 931.681885,287.014282 
	C931.775940,270.356079 931.726013,253.697113 931.747742,237.038437 
	C931.751221,234.374863 931.860413,231.710983 931.946167,229.048065 
	C932.089172,224.607498 934.424683,222.367996 938.838013,222.248779 
	C941.168640,222.185822 943.499573,222.081970 945.830322,222.081177 
	C978.481384,222.069962 1011.132385,222.069962 1043.783447,222.080322 
	C1046.114258,222.081055 1048.445435,222.173843 1050.775879,222.241196 
	C1055.281860,222.371399 1057.374023,224.898621 1057.552490,229.207428 
	C1057.676636,232.201813 1057.738892,235.200928 1057.739014,238.197937 
	C1057.747559,407.450378 1057.750610,576.702820 1057.740479,745.955261 
	C1057.739502,762.023438 1057.698608,762.049744 1041.792236,762.059387 
	C1010.473877,762.078308 979.155457,762.067383 947.837097,762.060486 
	C945.172119,762.059937 942.494629,762.150574 939.844666,761.933655 
	C933.514282,761.415344 932.221497,760.390381 931.938354,754.113037 
	C931.578308,746.131836 931.751587,738.125488 931.741516,730.129883 
	C931.722168,714.850525 931.735779,699.571167 931.735779,682.365723 
	C928.977783,684.763367 927.412415,685.713684 926.389832,687.072449 
	C883.632019,743.886047 826.879639,767.930847 756.292969,760.370300 
	C717.877686,756.255615 683.029419,743.508179 653.052734,718.878235 
	C621.784302,693.187073 601.732788,659.758789 588.313782,622.065674 
	C573.976379,581.793091 568.328247,540.084412 567.655701,497.480988 
	C567.042603,458.646179 570.061340,420.279083 580.155823,382.658905 
	C589.146912,349.151093 603.240601,318.128601 625.293213,291.040863 
	C653.829041,255.989655 690.676208,234.771606 734.807983,226.382248 
	C771.665161,219.375793 808.436279,219.267090 844.190125,232.420380 
	C855.073364,236.424164 865.325745,242.142929 876.489136,247.460876 
M753.994019,631.114380 
	C756.283325,632.479370 758.512085,633.960449 760.871155,635.191833 
	C796.997803,654.048645 842.700806,653.085938 877.473206,625.088684 
	C897.330017,609.100769 909.789062,587.781067 917.494751,564.033142 
	C932.125244,518.943420 933.295593,473.078613 921.650391,427.115540 
	C915.333740,402.184143 904.273743,379.371582 885.758301,361.161041 
	C846.463196,322.512604 790.918335,326.494629 758.000488,345.571625 
	C733.531006,359.752502 717.484741,381.206879 707.965515,407.174957 
	C688.053162,461.494781 688.933838,516.307678 707.840515,570.660156 
	C716.325684,595.053101 730.863342,615.652710 753.994019,631.114380 
z"/>
<path fill="#322D3C" opacity="1.000000" stroke="none" 
	d="
M3164.000000,762.066467 
	C3152.671631,762.066040 3142.343018,762.080017 3132.014648,762.061462 
	C3115.775635,762.032288 3115.761230,762.023010 3115.741455,745.300232 
	C3115.721680,728.641418 3115.758789,711.982605 3115.713379,695.323914 
	C3115.704346,692.061951 3115.431152,688.800720 3115.250732,684.907593 
	C3110.559082,685.357727 3109.371338,688.844238 3107.541748,691.259827 
	C3083.594482,722.879028 3052.506104,744.153381 3014.519287,755.272339 
	C2983.424072,764.373901 2951.991455,763.511841 2920.525146,757.437744 
	C2883.916992,750.371155 2851.848389,734.196289 2825.150879,708.124878 
	C2804.625488,688.080872 2789.744873,664.029846 2778.528809,637.753174 
	C2764.674805,605.296326 2756.682129,571.227356 2754.178223,536.165100 
	C2752.332275,510.311401 2751.406494,484.224213 2752.605713,458.358551 
	C2754.609375,415.144714 2763.018311,372.946411 2782.297363,333.809296 
	C2813.969238,269.513336 2865.089355,231.950424 2936.928955,223.626160 
	C2972.323730,219.524887 3006.748047,222.401016 3039.737793,236.738831 
	C3066.183105,248.232544 3088.683594,264.923584 3106.534912,287.702606 
	C3108.549316,290.272980 3110.696045,292.739685 3114.380127,297.182220 
	C3115.014648,292.474701 3115.663330,289.836975 3115.678711,287.195587 
	C3115.776611,270.537354 3115.726318,253.878265 3115.746826,237.219513 
	C3115.750000,234.555634 3115.853027,231.891602 3115.927490,229.228134 
	C3116.049316,224.862808 3118.168701,222.412872 3122.657715,222.263550 
	C3124.655029,222.197083 3126.652588,222.086914 3128.650146,222.086182 
	C3161.967773,222.074005 3195.285156,222.073517 3228.602783,222.081253 
	C3230.600830,222.081726 3232.598633,222.177078 3234.596680,222.221863 
	C3239.039307,222.321472 3241.328857,224.656174 3241.533447,229.028534 
	C3241.673584,232.021835 3241.738037,235.021393 3241.738281,238.018143 
	C3241.747803,407.271484 3241.750244,576.524841 3241.740967,745.778198 
	C3241.739990,762.037170 3241.702881,762.050110 3224.969482,762.062134 
	C3204.979736,762.076538 3184.989746,762.066040 3164.000000,762.066467 
M2884.019043,433.179413 
	C2878.831787,454.383209 2877.601318,475.960266 2878.304688,497.664703 
	C2879.318604,528.951233 2884.964844,559.172180 2899.597656,587.267151 
	C2919.061279,624.638123 2949.535156,645.691162 2991.765869,647.716187 
	C3020.922852,649.114258 3046.724121,639.975342 3068.101807,619.162292 
	C3086.087158,601.652161 3097.335205,580.422058 3103.994141,556.661682 
	C3112.049072,527.920044 3115.123535,498.686554 3112.605225,468.725922 
	C3110.717041,446.261047 3106.541992,424.537628 3097.856445,403.763763 
	C3087.989990,380.166779 3073.458008,360.247711 3051.363770,346.557831 
	C3011.966309,322.146698 2938.922852,322.034027 2901.627441,386.993164 
	C2893.601318,400.972778 2888.109619,415.926147 2884.019043,433.179413 
z"/>
<path fill="#322D3C" opacity="1.000000" stroke="none" 
	d="
M3640.518066,737.634888 
	C3610.954590,724.088379 3585.501465,706.172974 3565.268311,681.498352 
	C3545.624268,657.542542 3533.380859,630.111816 3528.687744,599.426392 
	C3527.073486,588.871826 3527.625977,587.928467 3537.272217,583.265686 
	C3564.862061,569.929443 3592.473633,556.637573 3620.097656,543.371948 
	C3622.159912,542.381653 3624.388672,541.737854 3627.712402,540.494446 
	C3628.671387,543.594604 3629.511230,546.266113 3630.324219,548.945679 
	C3633.313721,558.797180 3635.444336,569.011658 3639.437744,578.437073 
	C3651.538818,606.997131 3673.612305,625.826965 3701.666748,637.397339 
	C3743.366211,654.595581 3786.372803,656.919128 3829.964600,645.395691 
	C3842.267334,642.143494 3853.893555,636.809998 3863.692627,628.506470 
	C3868.708740,624.255798 3873.505859,619.366272 3877.125244,613.917358 
	C3889.128662,595.846558 3885.147217,574.721741 3867.779297,561.730774 
	C3854.360840,551.693909 3838.598633,546.991272 3822.610840,543.792358 
	C3790.284912,537.324402 3757.758789,531.861877 3725.328613,525.911133 
	C3693.153076,520.007080 3661.329346,512.749329 3631.442383,498.962982 
	C3601.278564,485.049042 3575.984375,465.508911 3562.190918,434.252045 
	C3542.476318,389.576080 3545.043457,329.895447 3583.611084,288.503296 
	C3604.354248,266.240692 3629.360596,251.001846 3657.452393,240.490707 
	C3692.131592,227.514984 3728.232666,222.158188 3765.166016,221.457550 
	C3803.707520,220.726410 3841.649414,224.031464 3878.667969,235.629578 
	C3910.940186,245.740479 3940.409424,260.790039 3964.740723,284.523743 
	C3984.454834,303.753601 3998.665527,326.386230 4003.016602,354.235107 
	C4003.273438,355.878693 4003.507324,357.530151 4003.650146,359.186676 
	C4004.565674,369.816406 4004.211670,370.505524 3994.123535,374.880768 
	C3969.367920,385.617218 3944.591309,396.305450 3919.795654,406.949249 
	C3916.553223,408.341217 3913.149658,409.359009 3909.324463,410.727753 
	C3908.136719,407.596466 3907.079346,405.535522 3906.567383,403.346924 
	C3901.233643,380.543671 3887.419189,364.215546 3867.812012,352.257355 
	C3850.444580,341.665100 3831.256104,336.015320 3811.451416,332.833618 
	C3781.593018,328.036743 3751.749023,328.200073 3722.244873,336.010956 
	C3710.498047,339.120819 3699.550537,343.908203 3690.218994,351.734131 
	C3686.716797,354.671021 3683.543945,358.329163 3681.185303,362.240173 
	C3673.860352,374.386322 3675.565918,386.635193 3687.023682,394.983337 
	C3694.690674,400.569366 3703.527832,405.549500 3712.598633,408.016205 
	C3737.634766,414.824310 3763.069336,420.166748 3788.344971,426.094147 
	C3818.813477,433.239288 3849.450928,439.746887 3879.691650,447.753326 
	C3901.622070,453.559601 3922.401367,462.749847 3941.866211,474.670013 
	C3992.171875,505.477142 4012.869385,551.659058 4004.755615,609.796265 
	C3996.973145,665.562805 3963.812012,703.088806 3915.681152,729.000549 
	C3883.822266,746.151733 3849.380615,754.871948 3813.710938,759.075684 
	C3769.690918,764.263428 3725.867676,763.412842 3682.780518,752.043091 
	C3668.662598,748.317688 3655.041260,742.709900 3640.518066,737.634888 
z"/>
<path fill="#322D3C" opacity="1.000000" stroke="none" 
	d="
M1150.306641,566.286682 
	C1168.182129,557.932983 1185.358521,549.864868 1202.571045,541.874329 
	C1203.369873,541.503479 1204.490845,541.826782 1206.253784,541.826782 
	C1206.991943,544.184326 1208.015137,546.562683 1208.472656,549.045288 
	C1217.177124,596.283569 1245.873047,626.178345 1290.251099,641.443970 
	C1328.343018,654.547241 1367.327393,656.223083 1406.418945,645.806396 
	C1423.020264,641.382568 1438.206299,633.979370 1450.180176,620.992371 
	C1468.269653,601.372498 1466.217773,575.423035 1444.182373,560.760620 
	C1435.465698,554.960632 1425.353149,550.163269 1415.203979,547.819519 
	C1386.018066,541.079712 1356.561890,535.421875 1327.075317,530.095032 
	C1294.917480,524.285706 1262.556641,519.190247 1231.917603,507.483734 
	C1216.130981,501.451996 1200.525635,494.255219 1186.092651,485.514069 
	C1155.675415,467.092194 1137.810547,439.467682 1131.235718,404.469452 
	C1124.129883,366.644897 1129.926392,331.408905 1152.650513,299.868896 
	C1167.520752,279.229797 1187.156616,263.926483 1209.593018,252.099976 
	C1238.589844,236.815430 1269.691406,228.368927 1302.010132,224.530045 
	C1351.029053,218.707520 1399.814575,219.763748 1447.882324,232.309021 
	C1479.545166,240.572754 1508.837769,253.731445 1533.685425,275.569275 
	C1555.676514,294.896454 1570.334106,318.498444 1575.260498,347.674713 
	C1575.703369,350.297028 1575.783203,352.978790 1576.091187,355.626007 
	C1576.785156,361.592468 1574.662598,365.589020 1569.033569,368.459106 
	C1551.820801,377.235840 1534.835938,386.459442 1517.754028,395.493683 
	C1510.979736,399.076599 1504.230713,402.712708 1497.375610,406.135101 
	C1494.504150,407.568695 1491.386841,408.509796 1487.970215,409.834137 
	C1486.670166,406.871155 1485.422363,404.885437 1484.908569,402.725159 
	C1478.802612,377.057892 1461.677734,360.690247 1439.434448,348.635590 
	C1424.308472,340.438141 1407.976929,335.866364 1391.116089,333.095215 
	C1358.814087,327.786194 1326.711182,328.138550 1295.144775,337.670013 
	C1282.564575,341.468597 1270.927979,347.317322 1262.444824,357.820068 
	C1251.442627,371.441223 1252.974487,387.234711 1267.609985,396.760162 
	C1276.945190,402.835999 1287.633179,407.662079 1298.385376,410.559814 
	C1320.878662,416.621735 1343.751831,421.347351 1366.585327,426.057434 
	C1401.835327,433.328735 1437.263916,439.830017 1471.278076,452.017456 
	C1500.374023,462.442688 1527.899658,475.641785 1549.849976,498.218384 
	C1572.248901,521.256348 1583.259888,548.936646 1584.367065,581.027832 
	C1585.369019,610.070740 1579.778442,637.366455 1565.265381,662.626831 
	C1551.537476,686.520630 1532.413696,705.274536 1509.350952,720.100891 
	C1477.362427,740.665283 1441.895874,751.695190 1404.636230,757.311951 
	C1358.435913,764.276367 1312.266357,764.408997 1266.595093,753.513550 
	C1216.686523,741.607422 1172.986206,718.937012 1140.557983,677.770569 
	C1122.185547,654.447327 1111.443359,627.830933 1106.897705,598.621094 
	C1105.456665,589.360352 1106.139038,587.936707 1114.580933,583.691833 
	C1126.190430,577.854309 1137.930542,572.276428 1150.306641,566.286682 
z"/>
<path fill="#322D3C" opacity="1.000000" stroke="none" 
	d="
M113.188583,532.918030 
	C80.845718,516.822205 52.409290,496.911072 30.364883,468.753448 
	C14.757924,448.818512 14.299569,447.063232 19.299131,422.111267 
	C27.931734,379.027466 43.983768,339.251099 71.394585,304.450623 
	C103.489502,263.703278 145.164291,237.775177 194.898773,224.320328 
	C224.039368,216.436798 253.811020,212.952530 283.925232,214.203598 
	C335.108795,216.329987 382.520142,230.175415 422.864166,263.041443 
	C459.587189,292.957642 484.038208,330.767700 490.815216,378.193359 
	C497.243805,423.181030 488.476257,464.564789 456.231049,498.667542 
	C437.097778,518.903015 413.736847,533.138245 387.581116,542.065613 
	C307.342010,569.452393 226.470749,572.740662 145.282547,546.111145 
	C134.556168,542.592957 124.318710,537.584106 113.188583,532.918030 
M290.905945,331.709808 
	C259.385101,327.579834 229.098602,331.791016 200.375534,345.598572 
	C167.881699,361.218781 145.512253,386.160736 133.184601,420.018860 
	C129.427109,430.338898 129.881973,432.857513 139.517395,437.801147 
	C150.125992,443.244049 161.164261,448.308258 172.567413,451.658234 
	C207.405838,461.893097 243.116440,465.918762 279.246185,461.414673 
	C295.338196,459.408600 311.326721,455.468903 326.895294,450.837311 
	C334.586182,448.549255 341.895844,443.518372 348.195251,438.300598 
	C364.248596,425.003723 370.000519,402.592346 363.486511,382.905487 
	C357.733002,365.517181 345.583710,353.497131 330.407288,344.305969 
	C318.851654,337.307587 305.970367,333.826599 290.905945,331.709808 
z"/>
<path fill="#322D3C" opacity="1.000000" stroke="none" 
	d="
M3329.734375,376.000000 
	C3329.735596,329.010620 3329.717773,283.021210 3329.750488,237.031845 
	C3329.760986,222.140488 3329.821533,222.095520 3344.843262,222.081146 
	C3376.835938,222.050537 3408.828613,222.069489 3440.821289,222.075562 
	C3443.153564,222.076004 3445.499023,221.991196 3447.815918,222.197235 
	C3453.870361,222.735672 3455.075439,223.965607 3455.610107,230.248322 
	C3455.835449,232.897690 3455.742188,235.576752 3455.742188,238.242325 
	C3455.746826,407.536621 3455.750732,576.830872 3455.739990,746.125183 
	C3455.739014,762.027039 3455.695312,762.050964 3439.614990,762.059875 
	C3408.288818,762.077148 3376.962891,762.069946 3345.636719,762.056152 
	C3342.639160,762.054810 3339.641113,761.947388 3336.643799,761.868530 
	C3332.132080,761.749817 3330.038574,759.266235 3329.933594,754.907715 
	C3329.845215,751.244141 3329.744873,747.579468 3329.744385,743.915283 
	C3329.734375,621.610168 3329.735352,499.305084 3329.734375,376.000000 
z"/>
</svg>