<svg version="1.1" id="Layer_1" xmlns="http://www.w3.org/2000/svg" xmlns:xlink="http://www.w3.org/1999/xlink" x="0px" y="0px"
	 width="100%" viewBox="0 0 780 680" enable-background="new 0 0 780 680" xml:space="preserve">
<path fill="#ffffff" opacity="1.000000" stroke="none" 
	d="
M69.526581,42.179138 
	C87.306534,42.148769 104.671585,42.889370 121.960564,42.054512 
	C154.228546,40.496334 182.946350,64.255531 189.884308,94.138367 
	C194.565109,114.299202 198.040390,134.742920 201.926636,155.084610 
	C210.459930,199.750366 218.901962,244.433548 227.403824,289.105316 
	C229.543228,300.346497 232.062073,311.526184 233.800827,322.827332 
	C234.449356,327.042572 236.074387,327.840637 239.876740,327.835968 
	C313.370117,327.745483 386.863647,327.768951 460.357117,327.768921 
	C501.853424,327.768921 543.349731,327.789764 584.846069,327.758392 
	C601.333130,327.745941 610.780090,320.613190 615.416199,304.669159 
	C617.728638,296.716461 619.831177,288.702545 622.013489,280.712158 
	C638.029358,222.072021 653.942871,163.403610 670.143738,104.814644 
	C673.113831,94.073624 678.637939,85.005539 690.587952,81.770157 
	C709.271423,76.711739 730.549683,91.222824 726.036011,112.484093 
	C721.980957,131.584930 716.808289,150.457993 711.810303,169.347305 
	C698.672913,218.998947 685.480530,268.636719 672.080505,318.217987 
	C662.370239,354.146576 638.947388,375.905670 602.637756,383.623810 
	C597.007141,384.820709 591.066406,384.913635 585.268677,384.917358 
	C474.111938,384.988586 362.955139,384.970032 251.798325,384.970032 
	C249.831116,384.970032 247.863922,384.970032 245.530609,384.970032 
	C247.581238,396.772888 248.967636,408.191254 251.641190,419.299866 
	C255.258698,434.330719 266.362091,441.873535 283.192902,441.885406 
	C321.689484,441.912567 360.186066,441.893982 398.682648,441.894073 
	C472.676086,441.894287 546.669556,441.880981 620.662964,441.906067 
	C635.796021,441.911194 646.740723,450.199158 649.973877,463.912964 
	C653.639832,479.462921 644.401672,494.333344 628.684143,497.925934 
	C625.634949,498.622894 622.434753,498.955597 619.304016,498.957031 
	C506.314056,499.008026 393.323242,498.746979 280.334503,499.120605 
	C233.350510,499.275940 201.541077,464.696960 194.771759,427.524353 
	C184.159119,369.246582 172.460495,311.166870 161.280930,252.991898 
	C152.799179,208.855606 144.410461,164.701401 135.977005,120.555809 
	C135.199585,116.486305 134.502060,112.397774 133.584961,108.359520 
	C131.910583,100.986870 129.788818,99.314537 122.261559,99.303871 
	C105.763054,99.280487 89.264412,99.265724 72.765984,99.308182 
	C55.423096,99.352814 43.435375,89.484421 42.244274,72.348938 
	C41.306412,58.856674 49.169777,46.260273 65.164490,43.002335 
	C66.466576,42.737114 67.772964,42.493046 69.526581,42.179138 
z"/>
<path fill="#ffffff" opacity="1.000000" stroke="none" 
	d="
M365.292664,177.707367 
	C359.979279,172.389404 354.829987,167.403885 349.871124,162.235672 
	C340.295929,152.256226 338.069946,139.940674 343.653381,128.744370 
	C349.192627,117.636848 360.125305,111.394691 372.224274,112.811836 
	C379.590515,113.674644 385.728516,117.288162 390.944855,122.494522 
	C400.260193,131.792007 409.568024,141.096970 418.889069,150.388687 
	C420.042999,151.538971 421.258423,152.627548 422.686646,153.971832 
	C433.322998,143.315125 443.620361,132.656693 454.303223,122.399750 
	C463.308289,113.753685 473.809082,109.574638 486.205566,114.686829 
	C506.145447,122.909836 510.549957,146.492065 495.105957,162.326416 
	C484.756317,172.937592 474.210327,183.357208 463.756256,193.866608 
	C463.642426,193.981033 463.583405,194.149994 463.139832,194.902527 
	C473.129181,204.818176 483.372009,214.742355 493.295624,224.976135 
	C496.491333,228.271774 499.299133,232.136002 501.496613,236.169312 
	C506.984283,246.241837 504.628601,259.481140 496.308502,268.013855 
	C488.219727,276.309326 475.055756,278.979645 464.957123,273.815399 
	C460.726746,271.652100 456.666626,268.781525 453.239136,265.492584 
	C442.914337,255.585220 432.938385,245.314331 422.339722,234.697800 
	C411.704895,245.474640 401.384857,256.081451 390.897186,266.519897 
	C379.553711,277.810089 365.855042,279.492889 353.249847,271.379822 
	C337.809235,261.441772 336.397888,240.689163 350.256897,226.371902 
	C355.470581,220.985809 360.822906,215.733109 366.147430,210.455338 
	C371.348145,205.300339 376.594055,200.190994 382.416748,194.476044 
	C376.608246,188.789795 371.075531,183.373520 365.292664,177.707367 
z"/>
<path fill="#ffffff" opacity="1.000000" stroke="none" 
	d="
M577.387756,539.233948 
	C590.721008,535.471436 603.597778,536.015381 615.893372,541.208191 
	C634.734375,549.165344 646.166626,563.785522 649.789307,583.714905 
	C654.127869,607.582703 645.658386,627.328003 626.191040,641.156921 
	C607.192261,654.653015 585.997253,655.047546 565.799744,644.063538 
	C548.997925,634.926147 539.261108,619.807434 537.266846,600.372986 
	C534.799805,576.331116 544.723938,558.111633 564.222839,544.798096 
	C567.971497,542.238647 572.715576,541.137024 577.387756,539.233948 
z"/>
<path fill="#ffffff" opacity="1.000000" stroke="none" 
	d="
M306.787598,608.548157 
	C301.112640,628.719421 288.253021,641.574646 269.046631,648.198853 
	C237.019424,659.244995 201.289413,638.473206 195.131760,605.278198 
	C187.928802,566.447998 217.977798,536.358093 252.277252,537.010620 
	C286.295502,537.657654 314.793304,567.791931 307.294739,605.682434 
	C307.133148,606.498840 307.024170,607.325745 306.787598,608.548157 
z"/>
</svg>