<svg version="1.1" id="Layer_1" xmlns="http://www.w3.org/2000/svg" xmlns:xlink="http://www.w3.org/1999/xlink" x="0px" y="0px"
	 width="100%" viewBox="0 0 739 644" enable-background="new 0 0 739 644" xml:space="preserve">
<path fill="#ffffff" opacity="1.000000" stroke="none" 
	d="
M246.032715,465.500610 
	C223.278214,465.467987 203.838074,457.448334 187.709579,441.373474 
	C174.932083,428.638489 167.055634,413.348907 163.666702,395.680817 
	C150.400299,326.517090 137.120819,257.355865 123.859200,188.191238 
	C116.805580,151.403793 109.796814,114.607719 102.725906,77.823593 
	C101.100555,69.368233 99.229912,67.898117 90.705048,67.895401 
	C74.373604,67.890205 58.041622,67.977493 41.710865,67.871803 
	C25.112286,67.764397 14.492240,58.818130 11.777956,42.911003 
	C9.643926,30.404465 17.687334,16.839092 29.857431,13.107653 
	C33.934124,11.857712 38.328823,11.148457 42.590900,11.087884 
	C58.752430,10.858197 74.941177,11.537586 91.079384,10.882644 
	C124.391777,9.530714 153.464966,34.542015 159.877838,68.552536 
	C174.068756,143.813675 188.507599,219.028076 203.027100,295.049500 
	C205.215393,296.225372 207.221771,296.951843 209.228485,296.952789 
	C323.852142,297.006989 438.475861,297.000977 553.099548,296.999969 
	C554.598938,296.999939 556.150024,297.218201 557.578979,296.897766 
	C558.482849,296.695068 559.204590,295.680237 560.007996,295.029663 
	C573.430237,291.524719 579.845093,282.203796 583.338318,269.225800 
	C600.981628,203.676773 619.034363,138.237885 636.986328,72.772102 
	C641.519226,56.242085 652.645935,48.130898 668.330811,49.703655 
	C684.014465,51.276299 695.307556,64.920448 692.388000,80.420242 
	C689.683228,94.779930 685.584229,108.888657 681.834656,123.037781 
	C667.387939,177.552567 652.879639,232.051147 638.307312,286.532471 
	C627.538025,326.795349 594.590210,352.031311 552.831299,352.041748 
	C441.867950,352.069550 330.904633,352.051056 219.941299,352.050964 
	C217.988235,352.050964 216.035187,352.050964 213.638443,352.050964 
	C215.766327,364.057465 217.223267,375.654999 219.971680,386.937988 
	C223.470749,401.302673 234.305084,408.836639 250.035172,408.896149 
	C273.693695,408.985626 297.352783,408.919617 321.011627,408.919647 
	C409.315796,408.919769 497.619965,408.911774 585.924133,408.926971 
	C602.921814,408.929901 614.129028,417.617645 616.883118,432.803650 
	C619.837219,449.092255 608.936279,462.805908 590.287842,464.994446 
	C588.308411,464.394897 587.016602,464.023987 585.724670,464.023682 
	C473.918518,463.996979 362.112366,463.993286 250.306244,464.061035 
	C248.881454,464.061890 247.457214,465.000000 246.032715,465.500610 
z"/>
<path fill="#ffffff" opacity="1.000000" stroke="none" 
	d="
M315.851501,196.902740 
	C327.408020,185.604004 338.762207,174.601608 350.357544,163.365540 
	C341.001465,153.921387 332.440033,145.371628 323.993988,136.709442 
	C320.515900,133.142334 316.851013,129.636154 314.025055,125.577301 
	C305.773193,113.725349 306.794891,98.321304 317.093018,89.108177 
	C327.864899,79.471199 340.520294,77.477150 353.589478,86.797028 
	C358.689606,90.434021 362.979309,95.245537 367.466949,99.694786 
	C374.908356,107.072548 382.211304,114.589973 390.115173,122.598274 
	C400.604492,112.011971 410.638000,101.636086 420.989807,91.588097 
	C424.154480,88.516335 427.920380,85.783302 431.879608,83.859833 
	C448.193665,75.934151 467.888916,86.004059 471.078918,103.903534 
	C472.960571,114.461563 469.360718,123.520935 461.902740,131.052704 
	C451.703918,141.352478 441.426239,151.574158 431.187714,161.834656 
	C431.076721,161.945877 431.037933,162.129105 430.782043,162.657318 
	C431.622070,163.600784 432.522400,164.717865 433.530304,165.727554 
	C443.065125,175.278961 452.714569,184.718063 462.140778,194.375198 
	C473.019989,205.520966 474.782501,220.483246 465.858124,232.810272 
	C458.382599,243.136047 443.454193,247.266937 432.027374,241.431305 
	C428.086456,239.418701 424.306366,236.741821 421.112671,233.680084 
	C411.012421,223.997269 401.224792,213.988373 391.312469,204.109390 
	C391.077667,203.875366 390.798828,203.685532 390.186859,203.186905 
	C389.174896,204.075363 388.050568,204.960144 387.043396,205.962631 
	C377.478027,215.483521 367.996307,225.089371 358.364319,234.542191 
	C347.631592,245.075241 335.146362,246.976395 322.844574,240.162476 
	C309.562561,232.805618 304.757202,216.565109 311.936615,203.106689 
	C313.028503,201.059799 314.404541,199.164490 315.851501,196.902740 
z"/>
<path fill="#ffffff" opacity="1.000000" stroke="none" 
	d="
M191.369812,511.284363 
	C220.043381,496.390106 253.430740,504.775940 268.860596,531.851379 
	C285.111389,560.367432 275.657928,598.784363 240.820129,612.963989 
	C209.115143,625.868469 176.526443,607.318420 166.887405,582.058899 
	C157.527237,557.530212 163.711182,527.583435 191.369812,511.284363 
z"/>
<path fill="#ffffff" opacity="1.000000" stroke="none" 
	d="
M504.308044,554.481689 
	C506.172363,540.557556 511.492950,528.712402 521.494812,519.389099 
	C539.586182,502.525024 560.696472,499.453247 583.115784,508.334167 
	C619.999207,522.944702 628.672913,573.519592 600.039917,601.570679 
	C583.263123,618.006470 555.535645,622.167297 533.787964,610.781067 
	C515.472229,601.191650 501.927002,579.715515 504.308044,554.481689 
z"/>
</svg>