<svg version="1.1" id="Layer_1" xmlns="http://www.w3.org/2000/svg" xmlns:xlink="http://www.w3.org/1999/xlink" x="0px" y="0px"
	 width="100%" viewBox="0 0 528 432" enable-background="new 0 0 528 432" xml:space="preserve">
<path fill="#ffffff" opacity="1.000000" stroke="none" 
	d="
M69.986671,20.715225 
	C79.981529,20.651033 89.564377,20.607430 98.384430,24.650511 
	C114.075005,31.843006 122.085419,44.828144 125.219414,61.367649 
	C131.740387,95.781776 138.390900,130.171341 144.934036,164.581299 
	C147.166245,176.320404 149.358795,188.069946 151.320374,199.856171 
	C152.109100,204.595322 153.698456,206.809738 159.233932,206.793427 
	C231.716690,206.579636 304.200287,206.658310 376.683655,206.643082 
	C389.520752,206.640396 395.586792,201.932648 398.956665,189.617416 
	C410.537842,147.293777 422.124664,104.971680 433.735718,62.656231 
	C438.414215,45.605850 455.768341,40.227943 467.682434,51.964970 
	C473.644623,57.838528 473.639008,65.258598 471.765900,72.021126 
	C464.980133,96.519943 458.781250,121.172455 452.037201,145.677399 
	C446.173767,166.982513 441.475861,188.623795 434.396973,209.575653 
	C427.658569,229.519791 405.221497,245.315155 384.116943,245.331284 
	C311.966888,245.386398 239.816742,245.355621 167.666626,245.362335 
	C160.164566,245.363022 160.134964,245.382416 161.310089,252.723175 
	C161.914154,256.496613 162.548798,260.270111 163.337845,264.008087 
	C165.692947,275.165192 172.199097,280.582977 183.683167,280.634369 
	C205.511063,280.732025 227.339691,280.664490 249.168015,280.664642 
	C300.156311,280.665039 351.144623,280.655212 402.132935,280.672668 
	C413.111084,280.676453 419.932678,285.479553 422.395477,294.798004 
	C425.510040,306.582520 418.819946,317.147247 406.823578,319.197540 
	C404.047241,319.672058 401.192444,319.883270 398.373627,319.884644 
	C328.223083,319.918304 258.072479,319.946136 187.922058,319.856628 
	C178.951523,319.845184 169.830521,319.866425 161.355209,316.327240 
	C141.318832,307.960358 128.860886,293.238190 124.737114,271.732697 
	C115.110580,221.530243 105.464722,171.331512 95.853661,121.126106 
	C92.419792,103.188515 88.976349,85.251816 85.729065,67.280052 
	C84.840416,62.361916 82.630997,60.069595 77.397446,60.211380 
	C67.573631,60.477539 57.736481,60.367363 47.906559,60.259960 
	C37.117218,60.142075 29.354284,55.050583 26.833382,46.667763 
	C22.589640,32.555946 31.346060,21.206614 46.994881,20.766804 
	C54.487579,20.556221 61.990822,20.720751 69.986671,20.715225 
z"/>
<path fill="#ffffff" opacity="1.000000" stroke="none" 
	d="
M322.738098,87.686493 
	C315.971252,94.581604 308.990173,100.773552 302.451202,108.482597 
	C307.996338,114.041687 313.455841,119.553307 318.962189,125.017731 
	C321.445007,127.481659 323.757141,130.020721 325.681458,133.001953 
	C330.684296,140.752548 329.755005,148.254654 324.613403,155.235443 
	C320.118988,161.337616 313.791077,164.489563 306.028351,163.266174 
	C300.779816,162.439026 296.541260,159.383667 292.824341,155.715866 
	C286.558167,149.532471 280.383026,143.256805 273.217743,136.064514 
	C266.800049,142.877319 260.716217,149.452148 254.500641,155.899948 
	C248.702057,161.915161 241.887924,165.138290 233.385635,162.515518 
	C226.155136,160.285049 221.715744,155.164581 219.469452,148.119064 
	C217.356522,141.491867 219.028076,135.525894 223.693146,130.601334 
	C229.647690,124.315582 235.804596,118.210411 242.085510,112.250000 
	C244.899338,109.579773 244.955322,107.760498 242.176666,104.919655 
	C235.673264,98.270691 228.339539,92.399635 222.969589,84.663124 
	C216.601761,75.488976 217.697586,64.750992 225.802963,57.810825 
	C233.831543,50.936413 244.834442,51.359440 252.905334,59.069588 
	C258.807800,64.708244 264.638000,70.438782 270.212677,76.397552 
	C272.977570,79.352951 274.851196,79.725113 277.790649,76.570770 
	C283.350189,70.604843 289.272003,64.973747 295.099518,59.260929 
	C303.577667,50.949699 313.272247,50.289692 322.138794,58.582264 
	C329.434235,65.405403 331.739410,73.996315 325.362701,84.219757 
	C324.660492,85.345604 323.779968,86.360237 322.738098,87.686493 
z"/>
<path fill="#ffffff" opacity="1.000000" stroke="none" 
	d="
M172.209015,343.400970 
	C188.401443,347.590027 197.574387,358.291901 199.961792,373.810791 
	C202.436920,389.899719 197.726364,404.432770 183.102768,413.110260 
	C163.110611,424.973450 133.148087,418.627655 125.840759,390.134216 
	C118.984062,363.397858 140.317062,336.616272 172.209015,343.400970 
z"/>
<path fill="#ffffff" opacity="1.000000" stroke="none" 
	d="
M417.893524,400.678284 
	C400.971191,424.519562 368.592133,424.649170 352.609009,400.632660 
	C344.804199,388.905029 344.922333,375.523438 351.055054,362.984711 
	C356.919769,350.993958 367.205963,344.130737 380.575226,342.732880 
	C395.204041,341.203339 407.797699,345.843140 416.345032,357.997467 
	C425.800812,371.443542 425.599854,385.906647 417.893524,400.678284 
z"/>
</svg>