<svg version="1.1" id="Layer_1" xmlns="http://www.w3.org/2000/svg" xmlns:xlink="http://www.w3.org/1999/xlink" x="0px" y="0px"
	 width="100%" viewBox="0 0 780 680" enable-background="new 0 0 780 680" xml:space="preserve">
<path fill="#ffffff" opacity="1.000000" stroke="none" 
	d="
M604.999634,498.981140 
	C496.842651,498.981140 389.185333,499.095825 281.528503,498.919342 
	C243.503296,498.857025 215.890396,481.357513 200.952576,446.360352 
	C195.710114,434.078003 193.781006,420.273376 191.155685,407.002319 
	C183.421921,367.908020 176.073669,328.737305 168.619080,289.587982 
	C161.354095,251.434494 154.185349,213.262665 146.894287,175.114182 
	C142.610229,152.699081 138.223541,130.303162 133.768250,107.921463 
	C132.394501,101.020218 129.539001,98.956467 122.268372,98.961639 
	C105.103882,98.973839 87.919601,99.528229 70.780228,98.882935 
	C51.726585,98.165573 42.456524,86.851532 42.492188,70.618736 
	C42.529404,53.676064 53.126923,43.372128 70.115112,42.659100 
	C87.529198,41.928204 105.046684,43.582302 122.453369,42.776531 
	C138.588531,42.029617 152.298309,46.682720 164.890167,56.265423 
	C180.754684,68.338692 188.410095,84.889519 191.989868,103.937202 
	C198.800323,140.174789 205.846313,176.368057 212.688065,212.599823 
	C217.243973,236.726501 221.551880,260.899994 226.094589,285.029205 
	C228.604492,298.360992 231.296432,311.660370 234.141235,324.923981 
	C234.404083,326.149506 236.259155,327.208710 237.591599,327.961670 
	C238.349838,328.390198 239.547760,328.041382 240.547668,328.041382 
	C355.204163,328.041443 469.860657,328.042572 584.517151,328.040100 
	C601.497986,328.039734 611.496399,320.387604 615.957581,304.029541 
	C633.992859,237.898560 651.965088,171.750244 670.136108,105.656586 
	C673.290100,94.184341 678.991821,84.449615 691.904663,81.590858 
	C709.618286,77.669243 727.646423,91.032501 725.987671,106.835258 
	C724.857727,117.600357 722.369934,128.304291 719.606201,138.803101 
	C703.881897,198.536484 687.981995,258.224152 671.958740,317.878174 
	C662.189880,354.247162 638.513855,376.095520 601.696167,383.545685 
	C596.037842,384.690704 590.098572,384.789825 584.288879,384.793457 
	C473.465424,384.862335 362.641907,384.844269 251.818405,384.844269 
	C249.832581,384.844269 247.846756,384.844299 245.178741,384.844299 
	C247.333374,396.851624 248.763077,408.636993 251.667603,420.046967 
	C255.366180,434.576324 266.346985,441.973755 282.169769,441.988403 
	C317.666595,442.021332 353.163483,441.998749 388.660339,441.998749 
	C465.820160,441.998779 542.979980,441.991211 620.139771,442.004944 
	C636.576965,442.007843 647.877686,451.336456 650.136536,466.665649 
	C652.352722,481.705811 642.400146,495.753418 627.372681,497.891296 
	C620.175537,498.915192 612.796265,498.658112 604.999634,498.981140 
z"/>
<path fill="#ffffff" opacity="1.000000" stroke="none" 
	d="
M340.147064,175.092819 
	C318.666168,169.554398 309.095673,144.108948 327.341614,125.709473 
	C351.625305,101.221458 376.024506,76.846916 400.505157,52.555744 
	C413.037140,40.120747 430.240753,39.867382 442.891754,52.319965 
	C467.825470,76.862541 492.599457,101.574028 517.060364,126.586426 
	C525.040039,134.746002 528.590393,144.837830 524.360352,156.408340 
	C520.169067,167.872971 511.801575,174.223190 499.875153,175.588623 
	C490.189148,176.697571 482.436493,172.130859 475.751648,165.681076 
	C468.559021,158.741364 461.601135,151.558517 454.527924,144.494690 
	C453.401001,143.369278 452.206085,142.311920 450.242676,140.474472 
	C450.242676,143.094452 450.242645,144.679001 450.242676,146.263550 
	C450.243500,183.750381 450.291992,221.237289 450.223267,258.723999 
	C450.192902,275.282135 441.000885,286.693237 426.183533,288.949982 
	C410.661285,291.314026 396.794556,281.420532 394.163513,265.961548 
	C393.608307,262.699402 393.357208,259.346954 393.352142,256.035553 
	C393.296570,219.548462 393.317413,183.061264 393.317505,146.574081 
	C393.317505,144.923538 393.317505,143.272995 393.317505,141.622452 
	C392.968353,141.332245 392.619171,141.042023 392.270020,140.751816 
	C390.338623,142.894547 388.515411,145.147903 386.456635,147.160263 
	C378.721069,154.721390 371.208008,162.551056 363.028351,169.603683 
	C356.726837,175.036957 348.952026,176.973251 340.147064,175.092819 
z"/>
<path fill="#ffffff" opacity="1.000000" stroke="none" 
	d="
M203.509720,562.552124 
	C220.538528,539.742065 245.870819,531.521912 271.184723,540.858398 
	C301.180115,551.921387 314.877991,583.078674 305.262421,612.006958 
	C297.352509,635.803894 279.903137,648.257812 255.831467,650.558960 
	C232.614349,652.778320 213.782410,642.837524 202.058105,622.934631 
	C190.484360,603.287170 191.478638,582.640198 203.509720,562.552124 
z"/>
<path fill="#ffffff" opacity="1.000000" stroke="none" 
	d="
M598.583008,537.183105 
	C623.976868,540.363464 640.464050,553.920959 648.224182,577.759521 
	C657.758972,607.049622 639.567261,641.310547 609.140320,649.051392 
	C577.488159,657.103821 547.413818,640.419922 539.094788,609.211121 
	C529.088135,571.670715 556.570251,534.707458 598.583008,537.183105 
z"/>
</svg>