<svg version="1.1" id="Layer_1" xmlns="http://www.w3.org/2000/svg" xmlns:xlink="http://www.w3.org/1999/xlink" x="0px" y="0px"
	 width="100%" viewBox="0 0 775 674" enable-background="new 0 0 775 674" xml:space="preserve">
<path fill="#FEFEFF" opacity="1.000000" stroke="none" 
	d="
M474.000000,675.000000 
	C316.000000,675.000000 158.500000,675.000000 1.000000,675.000000 
	C1.000000,450.333344 1.000000,225.666672 1.000000,1.000000 
	C259.333344,1.000000 517.666687,1.000000 776.000000,1.000000 
	C776.000000,225.666672 776.000000,450.333344 776.000000,675.000000 
	C675.500000,675.000000 575.000000,675.000000 474.000000,675.000000 
M580.500000,498.164246 
	C591.664551,498.164917 602.830933,498.298279 613.993164,498.137390 
	C634.440430,497.842712 647.452026,481.905853 642.891907,462.934723 
	C639.618042,449.314667 628.742188,441.708099 612.426208,441.705872 
	C539.268188,441.695862 466.110138,441.702118 392.952118,441.702667 
	C355.289886,441.702942 317.627686,441.720917 279.965454,441.695465 
	C264.662048,441.685120 254.077759,436.090698 250.265976,423.588684 
	C246.516769,411.291840 244.865601,398.355316 242.177979,385.129395 
	C245.156952,385.129395 247.130646,385.129395 249.104340,385.129395 
	C359.091339,385.129181 469.078369,385.150787 579.065369,385.117798 
	C621.647034,385.105011 654.154663,360.044373 665.059753,319.031219 
	C679.002014,266.596039 693.011292,214.178680 706.908386,161.731567 
	C710.998657,146.295044 715.459106,130.912491 718.546509,115.267700 
	C721.225830,101.691223 712.370117,89.283577 698.747131,85.055847 
	C685.781860,81.032227 672.156982,87.104965 666.256653,99.713310 
	C664.854736,102.709023 663.823853,105.915695 662.947327,109.114395 
	C645.004700,174.592529 627.136902,240.091171 609.184387,305.566589 
	C604.882385,321.256622 595.531311,328.616394 579.622192,328.624084 
	C465.135712,328.679565 350.649231,328.639130 236.162827,328.727448 
	C232.780151,328.730042 231.682602,327.645538 231.067368,324.393219 
	C217.080444,250.453384 202.933014,176.543976 188.905212,102.611855 
	C183.314987,73.149147 161.037735,49.770466 131.909088,46.911930 
	C110.456924,44.806717 88.585159,45.319645 67.014580,46.596062 
	C49.334457,47.642258 39.006111,62.462418 41.942234,78.926041 
	C44.573685,93.681282 55.564243,102.415504 72.026245,102.540970 
	C88.356705,102.665451 104.688911,102.542755 121.020233,102.579643 
	C128.630173,102.596832 130.615845,104.297943 132.070206,111.830971 
	C134.909256,126.536209 137.733749,141.244278 140.552643,155.953400 
	C157.034256,241.955399 173.498566,327.960724 190.007034,413.957550 
	C192.452530,426.696686 193.927856,439.826599 200.527283,451.290894 
	C217.794373,481.286713 243.078644,498.193756 278.535553,498.178253 
	C378.857025,498.134460 479.178528,498.163757 580.500000,498.164246 
M450.600342,146.917206 
	C457.673004,153.978607 464.627380,161.163895 471.853241,168.064880 
	C478.437836,174.353394 486.074951,178.774246 495.590240,177.651917 
	C507.339935,176.266052 515.622437,169.969604 519.776245,158.767471 
	C524.039551,147.270065 520.569275,137.148911 512.527771,128.944946 
	C488.159637,104.084564 463.531616,79.474060 438.723785,55.051682 
	C426.527679,43.045021 409.562317,42.943401 397.532471,54.786739 
	C372.606262,79.326530 347.849640,104.044083 323.359985,129.018692 
	C315.315735,137.222260 311.959412,147.384033 316.212555,158.828079 
	C320.372833,170.022156 328.694305,176.336502 340.447205,177.647461 
	C350.123138,178.726730 357.872498,174.204132 364.535828,167.695084 
	C372.699371,159.720505 380.707855,151.587189 389.743500,142.563705 
	C389.743500,145.469955 389.743500,147.062012 389.743500,148.654053 
	C389.743561,185.299973 389.726776,221.945892 389.775177,258.591766 
	C389.779114,261.573669 389.958496,264.606537 390.515747,267.528076 
	C393.614075,283.772430 408.417786,293.574860 424.201202,289.966217 
	C438.064178,286.796631 446.148560,275.894928 446.170837,260.009552 
	C446.222931,222.863998 446.187256,185.718323 446.187134,148.572693 
	C446.187134,146.990097 446.187103,145.407501 446.187103,142.901764 
	C447.981354,144.515305 449.041718,145.468857 450.600342,146.917206 
M218.794418,640.819946 
	C221.329727,642.065979 223.775558,643.557678 226.414566,644.519104 
	C246.594391,651.870667 265.956177,650.652039 283.039642,636.932373 
	C300.217896,623.136475 307.335083,604.745605 303.841003,582.830688 
	C300.324432,560.775024 283.139832,539.279175 255.135452,536.336548 
	C230.723648,533.771362 209.163376,544.214539 197.587311,568.185486 
	C185.390533,593.441833 193.780899,624.130737 218.794418,640.819946 
M536.798462,617.612000 
	C538.651733,620.561401 540.210571,623.753235 542.406372,626.420654 
	C556.000916,642.935791 573.468628,650.900452 594.827332,648.038391 
	C615.631775,645.250488 631.089539,634.151611 639.500061,614.688049 
	C649.034912,592.622314 643.358643,566.682190 626.387695,551.374817 
	C607.760559,534.573547 581.881348,531.208130 560.539612,542.811707 
	C533.977112,557.253784 524.006775,587.977173 536.798462,617.612000 
z"/>
<path fill="#1F3050" opacity="1.000000" stroke="none" 
	d="
M580.000000,498.164246 
	C479.178528,498.163757 378.857025,498.134460 278.535553,498.178253 
	C243.078644,498.193756 217.794373,481.286713 200.527283,451.290894 
	C193.927856,439.826599 192.452530,426.696686 190.007034,413.957550 
	C173.498566,327.960724 157.034256,241.955399 140.552643,155.953400 
	C137.733749,141.244278 134.909256,126.536209 132.070206,111.830971 
	C130.615845,104.297943 128.630173,102.596832 121.020233,102.579643 
	C104.688911,102.542755 88.356705,102.665451 72.026245,102.540970 
	C55.564243,102.415504 44.573685,93.681282 41.942234,78.926041 
	C39.006111,62.462418 49.334457,47.642258 67.014580,46.596062 
	C88.585159,45.319645 110.456924,44.806717 131.909088,46.911930 
	C161.037735,49.770466 183.314987,73.149147 188.905212,102.611855 
	C202.933014,176.543976 217.080444,250.453384 231.067368,324.393219 
	C231.682602,327.645538 232.780151,328.730042 236.162827,328.727448 
	C350.649231,328.639130 465.135712,328.679565 579.622192,328.624084 
	C595.531311,328.616394 604.882385,321.256622 609.184387,305.566589 
	C627.136902,240.091171 645.004700,174.592529 662.947327,109.114395 
	C663.823853,105.915695 664.854736,102.709023 666.256653,99.713310 
	C672.156982,87.104965 685.781860,81.032227 698.747131,85.055847 
	C712.370117,89.283577 721.225830,101.691223 718.546509,115.267700 
	C715.459106,130.912491 710.998657,146.295044 706.908386,161.731567 
	C693.011292,214.178680 679.002014,266.596039 665.059753,319.031219 
	C654.154663,360.044373 621.647034,385.105011 579.065369,385.117798 
	C469.078369,385.150787 359.091339,385.129181 249.104340,385.129395 
	C247.130646,385.129395 245.156952,385.129395 242.177979,385.129395 
	C244.865601,398.355316 246.516769,411.291840 250.265976,423.588684 
	C254.077759,436.090698 264.662048,441.685120 279.965454,441.695465 
	C317.627686,441.720917 355.289886,441.702942 392.952118,441.702667 
	C466.110138,441.702118 539.268188,441.695862 612.426208,441.705872 
	C628.742188,441.708099 639.618042,449.314667 642.891907,462.934723 
	C647.452026,481.905853 634.440430,497.842712 613.993164,498.137390 
	C602.830933,498.298279 591.664551,498.164917 580.000000,498.164246 
z"/>
<path fill="#1E3050" opacity="1.000000" stroke="none" 
	d="
M450.351196,146.669815 
	C449.041718,145.468857 447.981354,144.515305 446.187103,142.901764 
	C446.187103,145.407501 446.187134,146.990097 446.187134,148.572693 
	C446.187256,185.718323 446.222931,222.863998 446.170837,260.009552 
	C446.148560,275.894928 438.064178,286.796631 424.201202,289.966217 
	C408.417786,293.574860 393.614075,283.772430 390.515747,267.528076 
	C389.958496,264.606537 389.779114,261.573669 389.775177,258.591766 
	C389.726776,221.945892 389.743561,185.299973 389.743500,148.654053 
	C389.743500,147.062012 389.743500,145.469955 389.743500,142.563705 
	C380.707855,151.587189 372.699371,159.720505 364.535828,167.695084 
	C357.872498,174.204132 350.123138,178.726730 340.447205,177.647461 
	C328.694305,176.336502 320.372833,170.022156 316.212555,158.828079 
	C311.959412,147.384033 315.315735,137.222260 323.359985,129.018692 
	C347.849640,104.044083 372.606262,79.326530 397.532471,54.786739 
	C409.562317,42.943401 426.527679,43.045021 438.723785,55.051682 
	C463.531616,79.474060 488.159637,104.084564 512.527771,128.944946 
	C520.569275,137.148911 524.039551,147.270065 519.776245,158.767471 
	C515.622437,169.969604 507.339935,176.266052 495.590240,177.651917 
	C486.074951,178.774246 478.437836,174.353394 471.853241,168.064880 
	C464.627380,161.163895 457.673004,153.978607 450.351196,146.669815 
z"/>
<path fill="#1F3151" opacity="1.000000" stroke="none" 
	d="
M218.513306,640.586426 
	C193.780899,624.130737 185.390533,593.441833 197.587311,568.185486 
	C209.163376,544.214539 230.723648,533.771362 255.135452,536.336548 
	C283.139832,539.279175 300.324432,560.775024 303.841003,582.830688 
	C307.335083,604.745605 300.217896,623.136475 283.039642,636.932373 
	C265.956177,650.652039 246.594391,651.870667 226.414566,644.519104 
	C223.775558,643.557678 221.329727,642.065979 218.513306,640.586426 
z"/>
<path fill="#1F3151" opacity="1.000000" stroke="none" 
	d="
M536.643921,617.266968 
	C524.006775,587.977173 533.977112,557.253784 560.539612,542.811707 
	C581.881348,531.208130 607.760559,534.573547 626.387695,551.374817 
	C643.358643,566.682190 649.034912,592.622314 639.500061,614.688049 
	C631.089539,634.151611 615.631775,645.250488 594.827332,648.038391 
	C573.468628,650.900452 556.000916,642.935791 542.406372,626.420654 
	C540.210571,623.753235 538.651733,620.561401 536.643921,617.266968 
z"/>
</svg>